<svg height="24" viewBox="0 0 24 24" width="24" xmlns="http://www.w3.org/2000/svg"><path d="m11.9894554 0c.5522847 0 1 .44771525 1 1l-.0004554 10h3.7399036c.5522848 0 1 .4477153 1 1 0 .248766-.0927217.4886008-.2600599.6726728l-7.73944828 8.5133931c-.37150692.4086576-1.00395525.4387742-1.41261286.0672673-.02347686-.0213426-.04592468-.0437904-.06726728-.0672673l-7.7394483-8.5133931c-.37150692-.4086576-.34139034-1.0411059.06726728-1.4126129.18407197-.1673381.42390675-.2600599.67267279-.2600599h3.73899295l.00045535-10c0-.55228475.44771525-1 1-1z" fill-rule="evenodd" transform="translate(3 1)"/></svg>