<svg height="28" viewBox="0 0 28 28" width="28" xmlns="http://www.w3.org/2000/svg"><g fill="none" fill-rule="evenodd"><path d="m15.1760744.68468395 9.6831064 5.63728569c.7178232.41790044 1.1593739 1.18588911 1.1593739 2.01649786v11.3175187c0 .830291-.4412157 1.5980359-1.1586049 2.01605l-9.6826325 5.641955c-.7274039.4238496-1.6267275.422988-2.3533179-.0022548l-9.63983662-5.6417902c-.71520913-.4185818-1.15474383-1.1851006-1.15474383-2.0137952v-11.32292088c0-.82930411.44017613-1.59629119 1.15621757-2.01465702l9.63936268-5.63204832c.7260992-.42424235 1.6243126-.42494562 2.3510752-.00184083z" fill="#d2579d"/><path d="m15.1666667.67357531 9.6852213 5.64978028c.7219359.41680985 1.1666667 1.18710623 1.1666667 2.02072594v11.30569877c0 .8336197-.4447308 1.6039161-1.1666667 2.0207259l-9.6852213 5.6559185c-.7219359.4168098-1.6113975.4168098-2.3333334 0l-9.63724769-5.6587261c-.72193584-.4168099-1.16666666-1.1871062-1.16666666-2.0207259v-11.30569879c0-.83361971.44473082-1.60391608 1.16666666-2.02072594l9.63724769-5.64697266c.7219359-.41680985 1.6113975-.41680985 2.3333334 0zm8.0410223 7.33678766-8.6243557-4.97927406c-.3609679-.20840492-.8056987-.20840492-1.1666666 0l-8.62435569 4.97927406c-.36096792.20840493-.58333333.59355312-.58333333 1.01036297v9.95854816c0 .4168098.22236541.801958.58333333 1.0103629l8.62435569 4.9792741c.3609679.2084049.8056987.2084049 1.1666666 0l8.6243557-4.9792741c.3609679-.2084049.5833333-.5935531.5833333-1.0103629v-9.95854816c0-.41680985-.2223654-.80195804-.5833333-1.01036297z" fill="#b2327b" fill-rule="nonzero"/><path d="m19 20h-3v-4h-4v4h-3v-12h3v5h4v-5h3z" fill="#fff"/></g></svg>