<svg height="16" viewBox="0 0 16 16" width="16" xmlns="http://www.w3.org/2000/svg"><path d="m.76231111 11.7982222c-.62135235.5380056-.88998276 1.378117-.69604898 2.176815s.81791658 1.4220718 1.61680352 1.6152257 1.63873568-.0762967 2.17613435-.698174l5.06677333-5.86688001c.10155053-.11503267.26497022-.15283392.40672-.09408.79053307.31378021 1.65271057.40170903 2.49031107.25397333 1.8331741-.33096433 3.2917117-1.72436371 3.7060267-3.54051555.1223009-.53705897.1460103-1.09186965.0699733-1.63740445-.0192172-.13446294-.1130926-.2463621-.2421672-.2886626-.1290746-.04230049-.2709712-.00766883-.3660461.08933816l-2.4024889 2.45550222c-.089391.09131795-.2209107.12764232-.3444978.09514667l-2.1320533-.56103111c-.12386777-.032642-.22060205-.12938986-.25322666-.25326223l-.56103111-2.13198222c-.03254544-.12361121.00381514-.25517733.09521778-.34453333l2.45603559-2.40231111c.0970567-.09506155.1317207-.236985.0894143-.36608522-.0423064-.12910023-.1542443-.22298193-.2887388-.24216367-.5465885-.07625484-1.1024921-.05238737-1.6405333.07043555-1.81572105.41528311-3.20822008 1.8743315-3.53834668 3.70744889-.14724909.8369982-.05921511 1.6984437.25429334 2.48835556.05920003.14126704.02172192.30455434-.09315556.40586666-.85696.74008889-4.31808 3.72931556-5.86936889 5.06897776zm1.37400889 2.7875556c-.43128906.0000144-.82011794-.2597787-.98517176-.6582351s-.07382703-.8571044.23114039-1.1620719c.30496741-.3049674.76361545-.3961942 1.16207184-.2311403.39845638.1650538.6582351.5538827.6582351.9851717.00004714.2828214-.1122726.5540748-.31224419.7540731-.19997159.1999982-.47120998.3123447-.75403138.3123447z"/></svg>